<?xml version="1.0" encoding="UTF-8" standalone="no"?>
<svg
   xmlns="http://www.w3.org/2000/svg"
   id="SVGRoot"
   version="1.1"
   viewBox="0 0 16 16"
  <g
     id="layer1">
    <g
       transform="matrix(0.10951962,-0.00144999,0.00151818,0.10459964,4.7591563,7.8797494)"
       id="g3785">
      <path
         id="path3799"
         d="m 14.105063,40.871345 c 1.085498,-0.288903 2.861768,-0.288903 3.947267,0 1.085498,0.288914 0.197363,0.525302 -1.973634,0.525302 -2.170996,0 -3.059131,-0.236388 -1.973633,-0.525302 z M 61.27935,37.738647 c -0.04895,-1.210837 0.217573,-1.889251 0.592338,-1.507574 0.374753,0.381689 0.414813,1.372381 0.08898,2.20154 -0.360014,0.916295 -0.627255,0.644128 -0.681366,-0.693966 z M 33.559447,33.622736 c 1.1227,-1.263491 2.295025,-2.297255 2.605168,-2.297255 0.310142,0 -0.354678,1.033764 -1.477378,2.297255 -1.122699,1.26349 -2.295025,2.297255 -2.605167,2.297255 -0.310143,0 0.354677,-1.033765 1.477377,-2.297255 z M -36.620281,20.987833 c 0,-2.842853 0.219937,-4.005838 0.488749,-2.584412 0.268812,1.421427 0.268812,3.747397 0,5.168824 -0.268812,1.421426 -0.488749,0.258441 -0.488749,-2.584412 z M 9.1680989,21.27499 c -1.4028257,-1.821788 -1.3629358,-1.862415 0.4258029,-0.43367 1.0854982,0.867034 1.9736332,1.771579 1.9736332,2.010098 0,0.945359 -0.926126,0.336896 -2.3994361,-1.576428 z M -5.2602848,19.36061 c -0.048969,-1.210844 0.2175823,-1.889252 0.592338,-1.507573 0.3747546,0.381679 0.4148216,1.372371 0.089039,2.201536 -0.36002,0.916298 -0.6272578,0.644123 -0.6813737,-0.693963 z m -4.3157876,-4.690228 c -0.012518,-2.526981 0.2081958,-3.695993 0.4904727,-2.597804 0.282278,1.098188 0.2925195,3.165717 0.022759,4.59451 -0.2697584,1.428791 -0.500713,0.530274 -0.5132317,-1.996706 z m -26.1345526,-28.61997 c -0.04897,-1.210844 0.217583,-1.889252 0.592338,-1.507573 0.374755,0.381679 0.414822,1.372371 0.08904,2.201536 -0.36002,0.916298 -0.627258,0.644123 -0.681374,-0.693963 z"/>
      <path
         id="path3797"
         d="M 11.06759,19.583629 C 7.6113975,14.558054 9.4622582,8.9263757 15.25895,6.8304303 c 1.703587,-0.6159768 1.821125,-0.3831638 0.793689,1.5720886 -2.179384,4.1474551 1.305118,6.3256441 4.055017,2.5348231 1.883343,-2.596246 4.147521,-0.584589 4.147521,3.684954 0,6.897966 -9.418805,10.441437 -13.187587,4.961333 z M -3.0578726,-30.413248 c 0.090956,-2.184584 3.02425891,-4.751434 4.1359241,-3.619229 0.7962008,0.810911 1.7407343,0.592099 3.0057891,-0.696329 1.0146088,-1.033355 1.8447425,-1.362539 1.8447425,-0.731522 0,0.631018 -1.3372052,2.218586 -2.9715686,3.527928 -2.9586621,2.370283 -6.0831805,3.159428 -6.0148871,1.519152 z m 6.16316,-16.475801 c 0.5009397,-0.888296 1.6772386,-2.523811 2.6139981,-3.63448 1.5834933,-1.877466 1.847377,-1.886507 3.7545698,-0.128632 1.7014887,1.568276 2.3522657,1.636429 3.8155347,0.399586 0.970291,-0.820147 1.503244,-2.183689 1.184341,-3.030093 -0.318904,-0.846403 -0.05295,-1.538915 0.59101,-1.538915 0.643958,0 1.008659,1.158144 0.810447,2.573653 -0.384643,2.746875 -4.012632,5.004626 -10.002576,6.224749 -2.9664349,0.604248 -3.5018905,0.43671 -2.7673246,-0.865868 z" />
      <path
         id="path3795"
         d="m 30.739971,30.751167 c 0.772186,-0.947618 1.657727,-1.722941 1.967869,-1.722941 0.310142,0 -0.06789,0.775323 -0.840079,1.722941 -0.772185,0.947618 -1.657726,1.722941 -1.967869,1.722941 -0.310142,0 0.06789,-0.775323 0.840079,-1.722941 z M 0.85352651,-0.83608982 C 1.976226,-2.0995801 3.1485517,-3.1333449 3.458694,-3.1333449 c 0.3101424,0 -0.3546776,1.0337648 -1.4773771,2.29725508 -1.12269955,1.26349027 -2.29502522,2.29725502 -2.60516757,2.29725502 -0.31014235,0 0.35467766,-1.03376475 1.47737718,-2.29725502 z M -1.9659494,-3.7076586 c 0.7721857,-0.9476177 1.65772665,-1.7229413 1.967869,-1.7229413 0.31014235,0 -0.06789298,0.7753236 -0.84007864,1.7229413 -0.77218566,0.9476177 -1.65772666,1.7229413 -1.96786896,1.7229413 -0.3101424,0 0.067893,-0.7753236 0.8400786,-1.7229413 z M 4.8007928,-51.950014 c 0.7721856,-0.947618 1.6577266,-1.722942 1.967869,-1.722942 0.3101423,0 -0.067893,0.775324 -0.8400787,1.722942 -0.7721856,0.947617 -1.6577266,1.722941 -1.967869,1.722941 -0.3101423,0 0.067893,-0.775324 0.8400787,-1.722941 z"/>
      <path
         id="path3793"
         d="m -35.296498,47.306186 c -0.416759,-0.686799 -0.218799,-1.797614 0.439911,-2.468492 0.845014,-0.860633 1.143898,-0.492957 1.015083,1.248707 -0.207844,2.810175 -0.394799,2.966905 -1.454994,1.219785 z M 19.76751,39.820534 c 0.374756,-0.381677 1.347475,-0.422476 2.161599,-0.09063 0.899675,0.366665 0.632438,0.638843 -0.681374,0.693955 -1.188878,0.04985 -1.854979,-0.221594 -1.480225,-0.603283 z m 47.281615,-2.177602 c -0.02301,-1.895235 0.210965,-2.809612 0.5199,-2.031957 0.308925,0.777656 0.327725,2.328303 0.04173,3.445883 -0.28594,1.11758 -0.538701,0.481309 -0.561685,-1.413926 z M 36.724142,27.879598 c 0.702393,-1.895235 1.686353,-3.445882 2.186578,-3.445882 0.500223,0 0.122173,1.550647 -0.840112,3.445882 -0.962284,1.895235 -1.946244,3.445883 -2.186578,3.445883 -0.240333,0 0.137717,-1.550648 0.840112,-3.445883 z m 1.044222,-12.634903 c 0,-2.211108 0.232094,-3.115652 0.515764,-2.010098 0.28367,1.105554 0.28367,2.914643 0,4.020197 -0.28367,1.105554 -0.515764,0.201009 -0.515764,-2.010099 z M -35.382417,4.9070478 c 0,-6.6333239 0.186394,-9.3469565 0.414211,-6.0302945 0.227816,3.316662 0.227816,8.743927 0,12.0605887 -0.227817,3.316662 -0.414211,0.60303 -0.414211,-6.0302942 z m 73.05183,-2.0100982 c -1.230646,-2.9290507 -1.202808,-2.99660608 0.382868,-0.9290903 0.940507,1.2262988 1.710013,2.6477254 1.710013,3.1587256 0,1.745807 -0.765016,0.9308018 -2.092881,-2.2296353 z M 14.105063,-7.3710062 c 1.085498,-0.2889108 2.861768,-0.2889108 3.947267,0 1.085498,0.288912 0.197363,0.5252938 -1.973634,0.5252938 -2.170996,0 -3.059131,-0.2363818 -1.973633,-0.5252938 z M 31.56435,-23.41344 c 0.763551,-0.314635 2.286068,-0.333788 3.383371,-0.04256 1.097304,0.291223 0.47258,0.548653 -1.388274,0.572061 -1.860854,0.02341 -2.758647,-0.214868 -1.995097,-0.529504 z M 6.4924783,-35.294915 c -0.3833574,-0.631745 -0.1595553,-1.148628 0.4973364,-1.148628 0.6568916,0 1.1943492,0.516883 1.1943492,1.148628 0,0.631745 -0.223801,1.148627 -0.4973364,1.148627 -0.2735354,0 -0.8109918,-0.516882 -1.1943492,-1.148627 z M 4.6827808,-50.478829 c 2.3618569,-2.730685 4.6291734,-3.324289 4.6291734,-1.211958 0,0.383879 -0.3429791,0.348646 -0.7621754,-0.07829 -0.4191963,-0.426941 -2.0685897,0.391456 -3.6653186,1.818661 l -2.9031433,2.594913 z m 9.8648182,1.400384 c 0.708608,-0.947618 1.495076,-2.756707 1.747706,-4.020197 0.375064,-1.875822 0.5769,-1.710491 1.10022,0.901226 0.352489,1.759164 0.373975,2.926634 0.04775,2.594377 -0.32623,-0.332256 -1.401099,0.03751 -2.388598,0.821716 -1.519857,1.206957 -1.597692,1.16135 -0.507078,-0.297122 z m -3.262012,-6.503852 c 0.775356,-0.318643 2.04412,-0.318643 2.819476,0 0.775356,0.318644 0.140974,0.579351 -1.409738,0.579351 -1.550711,0 -2.185094,-0.260707 -1.409738,-0.579351 z"/>
      <path
         id="path3791"
         d="m 15.796749,39.753788 c 0.775356,-0.318641 2.04412,-0.318641 2.819476,0 0.775356,0.31864 0.140973,0.579356 -1.409738,0.579356 -1.550712,0 -2.185094,-0.260716 -1.409738,-0.579356 z m 17.198803,-6.705366 c 0.772185,-0.947618 1.657726,-1.722941 1.967869,-1.722941 0.310142,0 -0.06789,0.775323 -0.840079,1.722941 -0.772185,0.947618 -1.657726,1.722941 -1.967869,1.722941 -0.310142,0 0.06789,-0.775323 0.840079,-1.722941 z m 34.15627,-3.445883 c 0.009,-3.158725 0.227498,-4.314604 0.48672,-2.568618 0.259234,1.745985 0.252298,4.330395 -0.01534,5.743138 -0.267693,1.412743 -0.479785,-0.01585 -0.471327,-3.17452 z M -35.42049,24.433716 c 0,-4.738089 0.199075,-6.676398 0.442389,-4.307354 0.243315,2.369045 0.243315,6.245662 0,8.614707 -0.243314,2.369044 -0.442389,0.430735 -0.442389,-4.307353 z m 73.41891,-2.584412 c 0.185808,-1.421427 0.636871,-3.359736 1.002363,-4.307354 0.365493,-0.947617 0.88764,-3.273588 1.160326,-5.168823 0.272686,-1.895236 0.340006,-0.60303 0.149598,2.871568 -0.190407,3.474599 -0.451793,6.575893 -0.580858,6.891765 -0.129065,0.315873 -0.174564,0.961976 -0.101107,1.435785 0.07345,0.473809 -0.339329,0.861471 -0.917298,0.861471 -0.57797,0 -0.89883,-1.162986 -0.713022,-2.584412 z m -22.742071,0.741821 c 0.374756,-0.381678 1.347475,-0.422486 2.161598,-0.09068 0.899676,0.366672 0.632438,0.638847 -0.681373,0.693963 -1.188879,0.04987 -1.85498,-0.221603 -1.480225,-0.603282 z M -8.6436559,18.211983 c -0.048969,-1.210844 0.2175823,-1.889252 0.5923381,-1.507574 0.3747545,0.38168 0.4148215,1.372371 0.089039,2.201537 -0.36002,0.916298 -0.6272578,0.644122 -0.6813737,-0.693963 z m 2.2555807,-2.297255 c -0.048969,-1.210844 0.2175824,-1.889252 0.5923381,-1.507574 0.3747546,0.38168 0.4148216,1.372371 0.089039,2.201537 -0.36002,0.916298 -0.6272578,0.644122 -0.6813737,-0.693963 z M 7.0563735,14.73817 c 0,-0.984901 0.5075057,-1.79073 1.1277904,-1.79073 0.6202847,0 1.1277903,0.486378 1.1277903,1.080839 0,0.594462 -0.5075056,1.40029 -1.1277903,1.79073 -0.6202847,0.39044 -1.1277904,-0.09593 -1.1277904,-1.080839 z M -8.6436559,11.320218 c -0.048969,-1.210844 0.2175823,-1.8892525 0.5923381,-1.5075739 0.3747545,0.3816799 0.4148215,1.3723709 0.089039,2.2015369 -0.36002,0.916298 -0.6272578,0.644122 -0.6813737,-0.693963 z m 24.1120839,0.402176 c -0.408862,-0.673776 -0.438813,-1.535247 -0.06656,-1.9143801 0.372255,-0.379132 0.676827,-0.1242022 0.676827,0.5665111 0,0.690715 0.888135,1.492226 1.973634,1.781137 1.779331,0.473579 1.785884,0.538411 0.06656,0.658536 -1.048892,0.07328 -2.241599,-0.418029 -2.650461,-1.091804 z m 15.728285,-12.8456407 -2.148427,-2.5844119 2.537528,2.1881216 c 2.384651,2.05629368 3.050945,2.9807022 2.148427,2.9807022 -0.214006,0 -1.355894,-1.16298535 -2.537528,-2.5844119 z m 2.25558,-0.9836961 C 25.695811,-10.84201 8.5824171,-11.183741 -0.82276808,-2.7913663 L -3.6576349,-0.26177606 -0.93434828,-3.4087593 C 2.9392744,-7.8850503 13.010501,-11.512297 18.827899,-10.526316 c 5.808017,0.9843911 11.703399,4.0291592 15.210085,7.8555028 1.503765,1.6408431 2.470557,2.98335089 2.148427,2.98335089 -0.32213,0 -1.552483,-1.08876564 -2.734118,-2.41948049 z m -69.162918,-6.0995073 c -0.04897,-1.2108441 0.217583,-1.8892519 0.592338,-1.5075736 0.374755,0.3816797 0.414822,1.372371 0.08904,2.2015364 -0.36002,0.9162981 -0.627258,0.6441228 -0.681374,-0.6939628 z m 20.516634,-15.1475249 c 0.374756,-0.381679 1.347475,-0.422486 2.161599,-0.09069 0.899675,0.366672 0.632437,0.638847 -0.681374,0.693963 -1.188878,0.04987 -1.854979,-0.221602 -1.480225,-0.603282 z m 42.268643,-0.06675 c 0.775356,-0.318643 2.04412,-0.318643 2.819476,0 0.775356,0.318644 0.140974,0.579352 -1.409738,0.579352 -1.550711,0 -2.185093,-0.260708 -1.409738,-0.579352 z m 10.150114,0 c 0.775356,-0.318643 2.04412,-0.318643 2.819476,0 0.775355,0.318644 0.140973,0.579352 -1.409738,0.579352 -1.550712,0 -2.185094,-0.260708 -1.409738,-0.579352 z m -41.7069476,-5.239957 c 0.3607846,-1.405133 0.853567,-1.951052 1.0950709,-1.213154 0.2415039,0.737899 1.294445,1.042693 2.3398684,0.677319 1.43580791,-0.501811 1.34901542,-0.213989 -0.3548119,1.176624 -3.0891892,2.521307 -3.8513218,2.362753 -3.0801274,-0.640789 z m 7.8260801,-3.046598 c 2.5989433,-2.545339 4.3462131,-3.263993 3.1523275,-1.296554 -0.3812947,0.628347 -1.8068871,1.7259 -3.1679823,2.439006 l -2.47471719,1.296555 z m -5.9588969,-1.671478 c 0.3569772,-1.157224 0.649049,-2.320209 0.649049,-2.584412 0,-0.264204 0.7189664,-0.480371 1.59770339,-0.480371 0.87873591,0 1.78931951,-0.58547 2.02351751,-1.301046 0.2698025,-0.824363 1.4132082,-0.981868 3.1207843,-0.429892 l 2.6949712,0.871155 -3.0535465,1.629474 c -1.679449,0.896211 -3.51782511,1.337232 -4.08527734,0.980047 -0.56745336,-0.357184 -1.60875006,0.265989 -2.31399236,1.38483 -1.2095157,1.918851 -1.2454381,1.914892 -0.6332092,-0.06979 z m 83.8021264,-9.561348 c 0.763548,-0.314635 2.286065,-0.333787 3.383371,-0.04256 1.097306,0.291227 0.472578,0.548657 -1.388276,0.572064 -1.860854,0.02341 -2.758643,-0.214868 -1.995095,-0.529504 z M 4.8007928,-44.726143 c 0.3101423,-0.310958 2.3285803,-1.173039 4.4854185,-1.915738 2.1568367,-0.7427 3.4256007,-0.856009 2.8194757,-0.251801 -0.606126,0.604207 -2.6245642,1.466289 -4.4854183,1.915738 -1.8608541,0.449448 -3.1296183,0.562759 -2.8194759,0.251801 z m 10.1501132,-3.7102 c 0,-0.278589 0.507506,-0.825976 1.12779,-1.216416 0.620285,-0.390441 1.127791,-0.162503 1.127791,0.506525 0,0.669028 -0.507506,1.216416 -1.127791,1.216416 -0.620284,0 -1.12779,-0.227936 -1.12779,-0.506525 z m -3.831097,-4.279423 c 0.319463,-0.526454 1.058397,-0.95719 1.642075,-0.95719 0.583678,0 1.061232,0.430736 1.061232,0.95719 0,0.526455 -0.738934,0.95719 -1.642076,0.95719 -0.903142,0 -1.380696,-0.430735 -1.061231,-0.95719 z" />
      <path
         id="path3789"
         d="m -28.75097,56.559495 c -1.395641,-0.571351 -2.537529,-1.258965 -2.537529,-1.528042 0,-0.58108 9.296596,1.460296 10.023949,2.201092 0.897457,0.914031 -4.877903,0.394817 -7.48642,-0.67305 z M -35.0478,43.194628 c -0.413523,-0.421156 -0.684051,-3.134788 -0.601173,-6.030295 l 0.150688,-5.264539 0.813514,5.743138 c 0.86587,6.112743 0.823533,6.76019 -0.363029,5.551696 z M -0.66157526,33.239864 C -2.5580901,31.183809 -2.7351735,30.559725 -1.4220601,30.559725 c 0.94143091,0 1.4568311,0.259578 1.14533541,0.576829 -0.3114957,0.317251 0.2746677,1.52331 1.30258429,2.680127 2.7470335,3.09152 1.2123871,2.56693 -1.68743486,-0.576817 z M 30.255052,33.752887 c -0.33992,-0.560163 0.264511,-1.723148 1.343179,-2.584412 1.732474,-1.383292 1.797936,-1.352658 0.561263,0.262691 -0.769974,1.005738 -1.066019,2.168723 -0.657878,2.584412 0.408142,0.415677 0.43369,0.755785 0.05677,0.755785 -0.376916,0 -0.963418,-0.458314 -1.303337,-1.018476 z M 12.313672,22.574896 C 10.553051,21.603132 9.3671302,20.548762 9.6782921,20.23185 c 0.311163,-0.316911 1.8746289,0.297254 3.4743699,1.364812 1.599742,1.067556 3.700155,1.63166 4.667587,1.253563 1.010515,-0.394937 1.465782,-0.2043 1.06994,0.448019 -0.947521,1.561448 -2.807651,1.356853 -6.576517,-0.723348 z m 54.915911,-7.904514 c -0.0034,-5.6857066 0.18727,-8.1564939 0.42379,-5.4906386 0.23652,2.6658556 0.23934,7.3177966 0.0068,10.3376476 -0.2336,3.019851 -0.427128,0.838697 -0.430557,-4.847009 z m -46.639725,7.533867 c 0,-0.594462 0.501693,-1.396631 1.114872,-1.782599 0.6393,-0.402409 0.82837,0.05865 0.443234,1.080839 -0.749744,1.989902 -1.558106,2.353983 -1.558106,0.70176 z m 18.68105,-4.325604 c -0.612035,-1.637021 -0.482493,-1.768957 0.631331,-0.642996 0.770752,0.779153 1.117269,1.705989 0.770037,2.059637 -0.347232,0.353648 -0.977848,-0.28384 -1.401368,-1.416641 z M -8.6436559,14.7661 c -0.048969,-1.210844 0.2175823,-1.889252 0.5923381,-1.507573 0.3747545,0.381679 0.4148215,1.372371 0.089039,2.201536 -0.36002,0.916298 -0.6272578,0.644123 -0.6813737,-0.693963 z M 8.1841639,12.080965 c 0,-1.432135 4.4206841,-6.9976121 4.4736411,-5.6321478 0.02064,0.5321005 -0.977491,2.2816739 -2.21806,3.8879408 -1.2405698,1.606268 -2.2555811,2.391161 -2.2555811,1.744207 z M 23.829374,10.937342 c -1.402826,-1.8217873 -1.362936,-1.8624143 0.425803,-0.43367 1.878614,1.500532 2.47604,2.443768 1.54783,2.443768 -0.234193,0 -1.122328,-0.904544 -1.973633,-2.010098 z m -5.495097,0.383135 c 0,-1.210879 3.397047,-4.4851214 4.007885,-3.8629972 0.284407,0.2896621 -0.501017,1.465071 -1.74539,2.6120192 -1.244372,1.146948 -2.262495,1.709888 -2.262495,1.250978 z M 1.7933514,-3.6571316 c 0,-0.919829 0.4312005,-1.4009948 0.9582226,-1.0692597 0.5270209,0.3317351 0.6662388,1.0843216 0.3093709,1.6724143 -0.9119594,1.5028436 -1.2675935,1.3336232 -1.2675935,-0.6031546 z M 21.416904,-7.8703858 c 0.765018,-0.7849927 1.67504,-1.137912 2.022272,-0.7842645 0.347233,0.3536475 -0.27869,0.9959152 -1.390941,1.4272604 -1.607324,0.623343 -1.736867,0.491407 -0.631331,-0.6429959 z M -11.27022,-23.420727 c 0.775356,-0.318643 2.0441202,-0.318643 2.819476,0 0.7753559,0.318644 0.1409738,0.579352 -1.4097379,0.579352 -1.5507121,0 -2.1850941,-0.260708 -1.4097381,-0.579352 z m 18.6320363,0.06675 c 0.3747558,-0.381679 1.3474749,-0.422486 2.1615986,-0.09068 0.8996751,0.366672 0.6324381,0.638847 -0.6813737,0.693963 -1.1888783,0.04987 -1.8549794,-0.221603 -1.4802249,-0.603283 z m 7.2819877,-0.135038 c 2.00209,-0.253746 5.554629,-0.257916 7.894533,-0.0093 2.339902,0.248692 0.701828,0.456302 -3.640165,0.461399 -4.341993,0.0051 -6.256458,-0.198345 -4.254368,-0.452091 z m 27.070659,0.07558 c 0.763551,-0.314635 2.286068,-0.333787 3.383371,-0.04256 1.097304,0.291227 0.47258,0.548656 -1.388274,0.572064 -1.860854,0.02341 -2.758647,-0.214868 -1.995097,-0.529503 z m 44.592675,-19.467203 c 0.374765,-0.381679 1.347473,-0.422486 2.161602,-0.09068 0.899672,0.366672 0.632442,0.638847 -0.681377,0.693963 -1.188871,0.04987 -1.854978,-0.221603 -1.480225,-0.603283 z M 13.33173,-51.712395 c 0.42352,-1.132801 1.054136,-1.770289 1.401368,-1.416641 0.347232,0.353648 7.15e-4,1.280483 -0.770037,2.059637 -1.113824,1.125961 -1.243366,0.994025 -0.631331,-0.642996 z"/>
      <path
         id="path3787"
         d="m -25.561426,56.127909 c -8.458631,-2.386882 -8.492449,-2.533895 -8.9465,-38.891944 l -0.399952,-32.025977 2.582079,-2.799279 c 4.417294,-4.788868 9.3829,-5.336095 50.096181,-5.52077 40.68736,-0.184558 41.758671,-0.319341 47.286423,-5.949231 1.68096,-1.712012 1.652427,-2.143684 -0.362348,-5.482758 -1.202834,-1.993438 -2.539186,-5.559345 -2.969675,-7.924237 -0.807701,-4.437078 0.009,-10.058375 1.460646,-10.057602 0.453395,2.41e-4 3.84545,2.841632 7.537903,6.3142 4.462994,4.197227 7.090542,5.929803 7.838143,5.168386 0.618525,-0.629958 3.179997,-1.168065 5.69215,-1.195794 2.512153,-0.02773 6.590739,-0.784174 9.06351,-1.680988 5.177482,-1.877739 6.771596,-0.962432 5.190271,2.980148 -2.18109,5.437938 -8.369355,11.132391 -13.633497,12.54559 -6.830248,1.833627 -7.690334,2.709164 -12.026936,12.24297 -4.781189,10.5112236 -5.967692,19.1791091 -5.995368,43.798859 -0.02459,21.866284 -0.896334,25.597853 -6.561157,28.085448 -4.448501,1.953482 -79.11065,2.295233 -85.851873,0.392979 z m 81.646467,-5.763192 c 5.265033,-2.240513 5.915497,-5.582766 6.5528,-33.669713 l 0.527434,-23.2451815 3.976194,-6.7981765 c 2.186898,-3.738996 4.647376,-8.688614 5.467719,-10.999152 1.824652,-5.139227 2.331357,-5.559012 9.640397,-7.986807 3.208756,-1.065831 6.442807,-2.684871 7.186777,-3.597865 1.141786,-1.401182 0.639265,-1.659992 -3.223157,-1.659992 -2.51671,0 -5.993958,0.549131 -7.727214,1.220292 -2.432294,0.94184 -3.260307,0.876316 -3.628699,-0.287157 -0.6123,-1.933793 -7.858038,-8.973528 -9.236118,-8.973528 -1.885226,0 -1.090168,3.930523 1.74256,8.614706 3.651142,6.037491 3.549878,7.488318 -0.816419,11.697438 -7.042983,6.789459 -5.955523,6.634313 -50.851569,7.254916 l -41.547298,0.574314 -2.154578,2.711662 c -1.993307,2.508692 -2.154578,4.8753779 -2.154578,31.618837 0,35.049417 -0.348757,34.012838 11.443614,34.012838 7.413029,0 8.127919,-0.227003 10.9197083,-3.467361 1.6430518,-1.907055 2.9928996,-4.362247 2.999663,-5.455981 0.00835,-1.34587 0.7413282,-1.866612 2.2678781,-1.611123 3.01611069,0.504776 6.1353848,3.729893 4.2858109,4.431233 -2.29069559,0.868615 -7.1052868,5.060692 -7.1052868,6.1866 0,0.626783 11.8524835,1.06526 28.7948775,1.06526 22.364497,0 29.653444,-0.365356 32.639484,-1.636059 z M 6.4924783,37.733352 C -1.443037,34.115279 -7.6049012,24.034047 -7.6049012,14.669089 c 0,-6.3751017 4.2556741,-15.50818823 8.7092144,-18.6908122 C 16.39957,-14.952141 38.056706,-6.0944331 39.312903,11.605483 l 0.380562,5.362154 -1.019858,-4.793912 C 36.695973,2.8777135 32.419906,-2.7244484 24.839903,-5.9500919 15.167807,-10.066018 3.613463,-6.5604967 -2.4515477,2.3299779 -5.3261523,6.5437558 -5.7955206,8.3002738 -5.850003,15.04803 c -0.051766,6.411594 0.419,8.545971 2.6002098,11.788881 10.0570028,14.952222 28.6566072,14.901406 38.7737062,-0.10594 1.459243,-2.164589 1.75414,-2.305985 1.197794,-0.574314 C 33.418015,36.439676 17.242066,42.634477 6.4924783,37.733352 Z M 22.805069,20.027987 c 0.743,-1.475534 1.66021,-2.367772 2.038246,-1.98275 0.378036,0.385021 -0.229872,1.592275 -1.350907,2.682788 -1.948543,1.89549 -1.978793,1.864682 -0.687339,-0.700038 z M 25.190055,14.7661 c -0.04897,-1.210844 0.217582,-1.889252 0.592338,-1.507573 0.374755,0.381679 0.414822,1.372371 0.08904,2.201536 -0.36002,0.916298 -0.627258,0.644123 -0.681374,-0.693963 z M 22.845439,9.5015578 c -1.016469,-0.6690296 -1.155572,-1.12047 -0.348507,-1.1310386 0.738749,-0.00967 1.656835,0.4992935 2.040192,1.1310386 0.865359,1.4260502 0.474939,1.4260502 -1.691685,0 z M 17.582416,6.680516 c 0,-0.9198289 0.431201,-1.4009948 0.958223,-1.0692596 C 19.06766,5.9429915 19.206878,6.695578 18.85001,7.2836707 17.938051,8.7865142 17.582416,8.6172938 17.582416,6.680516 Z M 9.3119542,-52.524328 c 0,-1.353307 0.7518608,-2.297255 1.8297778,-2.297255 1.442219,0 1.551686,0.341271 0.516824,1.611242 -1.008218,1.237273 -0.974829,1.749418 0.143855,2.206574 0.926442,0.378595 0.738286,0.628345 -0.516824,0.686013 -1.251451,0.0575 -1.9736328,-0.749919 -1.9736328,-2.206574 z"/>
    </g>
  </g>
</svg>
